<?xml version="1.0" encoding="utf-8"?>
<!-- Generator: Adobe Illustrator 27.1.1, SVG Export Plug-In . SVG Version: 6.00 Build 0)  -->
<svg version="1.1" id="Layer_1" xmlns="http://www.w3.org/2000/svg" xmlns:xlink="http://www.w3.org/1999/xlink" x="0px" y="0px"
	 viewBox="0 0 595.28 841.89" style="enable-background:new 0 0 595.28 841.89;" xml:space="preserve">
<style type="text/css">
	.st0{fill:#E0D967;}
	.st1{fill:#D1C856;}
	.st2{fill:#D37B33;}
	.st3{fill:#E58749;}
	.st4{fill:#72A03E;}
	.st5{fill:#84AF4B;}
	.st6{fill:#BF3232;}
	.st7{fill:url(#SVGID_1_);}
	.st8{fill:url(#SVGID_00000146471898421621028640000012379811152911084977_);}
	.st9{fill:url(#SVGID_00000011033520690038106980000013883495895158145687_);}
	.st10{fill:url(#SVGID_00000072978788442517438470000005922408929331240592_);}
	.st11{fill:url(#SVGID_00000010279445945205306120000000517097802981290912_);}
	.st12{clip-path:url(#SVGID_00000003821516314147361090000002786906308173745029_);}
	.st13{fill:#CC2027;}
</style>
<g>
	<polygon class="st0" points="298.49,421.35 355.96,422.55 379.52,447.44 321.38,447.07 	"/>
	<polygon class="st1" points="298.49,421.35 321.38,447.07 319.54,507.45 296.01,482.65 	"/>
	<polygon class="st2" points="247.82,370.68 298.49,421.35 296.01,482.65 246.12,429.92 	"/>
	<polygon class="st3" points="247.82,370.68 309.19,373.23 355.96,422.55 298.49,421.35 	"/>
	<polygon class="st4" points="480.26,612.61 321.38,447.07 319.54,507.45 416.48,611.2 	"/>
	<polygon class="st5" points="480.26,612.62 321.38,447.07 379.52,447.44 480.69,554.06 	"/>
	<path class="st6" d="M480.26,612.62"/>
	<g>
		<linearGradient id="SVGID_1_" gradientUnits="userSpaceOnUse" x1="379.6042" y1="256.6443" x2="390.9507" y2="268.6634">
			<stop  offset="0" style="stop-color:#84AF4B"/>
			<stop  offset="1" style="stop-color:#4D9436"/>
		</linearGradient>
		<path class="st7" d="M388.24,254.86l-4.18-2.82l-8.29,12.29l4.72,3.18c4.72,3.18,8.61,3.24,11.7-1.34
			C395.04,261.95,393.79,258.6,388.24,254.86z"/>
		
			<linearGradient id="SVGID_00000018938261925808092580000004474189403144780950_" gradientUnits="userSpaceOnUse" x1="143.3647" y1="266.6364" x2="431.1635" y2="571.4929">
			<stop  offset="0" style="stop-color:#84AF4B"/>
			<stop  offset="1" style="stop-color:#4D9436"/>
		</linearGradient>
		<path style="fill:url(#SVGID_00000018938261925808092580000004474189403144780950_);" d="M282.26,204.14
			c-115.77,0-209.62,93.85-209.62,209.62s93.85,209.62,209.62,209.62c32.55,0,63.36-7.42,90.84-20.65l-52.32-56.23
			c-12.23,3.54-25.15,5.45-38.52,5.45c-76.32,0-138.19-61.87-138.19-138.19s61.87-138.19,138.19-138.19s138.19,61.87,138.19,138.19
			c0,12.02-1.54,23.68-4.42,34.8l54.14,58.18c13.89-28.02,21.71-59.58,21.71-92.98C491.88,297.99,398.03,204.14,282.26,204.14z
			 M130.9,393.98c-1.22,10.48-8.99,16.2-23,14.56c-13.66-1.59-20-10.69-18.9-20.05c0.62-5.36,2.61-8.53,5.9-11.66l3.03,3.7
			c-2.63,2.56-3.91,4.85-4.33,8.5c-0.68,5.83,3.06,12.17,15.01,13.56c11.66,1.36,16.88-2.03,17.71-9.15
			c0.32-2.71,0.1-5.48-0.93-7.92l-12.24-1.43l-0.84,7.18l-4.61,0.12l1.56-13.36l19.6,2.29C130.59,384.4,131.5,388.8,130.9,393.98z
			 M139.56,357.27l-37.72-15.64l2.16-5.2l37.72,15.64L139.56,357.27z M160.66,321.18c-3.57,4.66-7.93,7.14-12.62,7.81l-0.86-4.54
			c3.85-0.93,7.07-2.5,9.77-6.03c2.92-3.81,3.45-8.41-0.46-11.4c-3.15-2.41-5.72-1.99-11.63,2.22c-6.76,4.83-11.68,6.29-16.72,2.43
			c-4.99-3.82-5.23-10.72-0.66-16.7c3.42-4.47,6.9-6.29,11.44-7.14l0.86,4.54c-3.85,0.93-6.43,2.55-8.48,5.23
			c-2.49,3.25-2.96,6.99,0.15,9.37c2.73,2.09,5.02,1.83,11.28-2.64c5.56-3.95,10.97-6.83,17.19-2.07
			C165.57,306.57,166.24,313.88,160.66,321.18z M225.66,271.37c-9.74,4.06-18.52,0.07-23.95-12.95
			c-5.29-12.69-0.45-22.67,8.25-26.29c4.98-2.07,8.71-1.89,13.06-0.56l-1.74,4.45c-3.51-1.04-6.15-1.04-9.54,0.38
			c-5.42,2.26-9.13,8.61-4.5,19.72c4.51,10.83,10.02,13.74,16.64,10.98c2.52-1.05,4.83-2.59,6.46-4.68l-4.74-11.38l-6.68,2.78
			l-2.36-3.96l12.42-5.17l7.59,18.22C233.87,266.42,230.48,269.37,225.66,271.37z M261.46,260.77l-3.04-40.73l22.05-1.65l-0.31,4.54
			l-15.78,1.18l0.99,13.3l13.71-1.02l0.33,4.49l-13.71,1.02l1.04,13.95l16.91-1.26l0.33,4.49L261.46,260.77z M342.86,248.87
			c-3.34,13.1-11.99,18.72-21.92,16.19c-9.88-2.52-14.9-11.38-11.52-24.65c3.32-13.04,12.07-18.82,21.95-16.3
			C341.31,226.64,346.25,235.54,342.86,248.87z M397.15,269.52c-3.21,4.77-7.59,5.96-13.45,4.15l-1.1,21.35l-5.55-3.75l1.57-19.82
			l-5.26-3.55l-9.68,14.35l-4.67-3.15l22.83-33.86l8.9,6C399.19,256.95,401.43,263.18,397.15,269.52z M416.99,330.58
			c-4.08-1.74-7.8-4.27-10.96-8.42c-6.39-8.39-4.77-17.9,6.45-26.45c10.94-8.33,21.81-6.19,27.53,1.31
			c3.27,4.29,4.04,7.95,3.85,12.49l-4.75-0.56c0.11-3.66-0.56-6.21-2.78-9.13c-3.56-4.67-10.65-6.64-20.22,0.65
			c-9.34,7.11-10.75,13.18-6.4,18.89c1.65,2.17,3.73,4.01,6.17,5.06l9.81-7.47l-4.38-5.75l3.24-3.28l8.15,10.7L416.99,330.58z
			 M425.29,354.58l38-14.97l2.06,5.24l-38,14.97L425.29,354.58z M437.87,413.22l-0.64-5.89l9.86-4.18l-1.68-15.38l-10.53-1.95
			l-0.62-5.66l42.01,8.58l0.77,7.07L437.87,413.22z"/>
		
			<linearGradient id="SVGID_00000129203936864918202750000014811752629319500169_" gradientUnits="userSpaceOnUse" x1="317.102" y1="234.9553" x2="336.4112" y2="255.409">
			<stop  offset="0" style="stop-color:#84AF4B"/>
			<stop  offset="1" style="stop-color:#4D9436"/>
		</linearGradient>
		<path style="fill:url(#SVGID_00000129203936864918202750000014811752629319500169_);" d="M330.23,228.58
			c-6.6-1.68-12.1,1.87-15.01,13.3c-2.91,11.43,0.43,17.05,6.86,18.69c6.66,1.7,12.05-1.7,14.98-13.19
			C339.96,236.02,337.01,230.31,330.23,228.58z"/>
		
			<linearGradient id="SVGID_00000181790218629871432930000003231357080820934787_" gradientUnits="userSpaceOnUse" x1="452.2939" y1="386.9871" x2="464.9321" y2="400.3745">
			<stop  offset="0" style="stop-color:#84AF4B"/>
			<stop  offset="1" style="stop-color:#4D9436"/>
		</linearGradient>
		<polygon style="fill:url(#SVGID_00000181790218629871432930000003231357080820934787_);" points="451.47,401.3 471.99,392.67 
			450.09,388.63 		"/>
	</g>
</g>
<g>
	
		<linearGradient id="SVGID_00000159468444943171961910000012485221199890074511_" gradientUnits="userSpaceOnUse" x1="166.2385" y1="478.3084" x2="95.8152" y2="512.6561" gradientTransform="matrix(1 -2.642870e-03 2.642870e-03 1 -2.2343 1.3931)">
		<stop  offset="0" style="stop-color:#DFDFDF"/>
		<stop  offset="0.1155" style="stop-color:#FFFFFF"/>
		<stop  offset="0.9118" style="stop-color:#FFFFFF"/>
		<stop  offset="1" style="stop-color:#D3D3D3"/>
	</linearGradient>
	<path style="fill:url(#SVGID_00000159468444943171961910000012485221199890074511_);" d="M175.97,501.05l-10.36-19.7l0,0
		l-11.48-21.35c1.09,6.63-45.66,18.12-62.95,24.34c-7.33,2.63-6.94,7.66-6.94,7.66s6.42,12.02,12.06,22.57l9.94,18.77
		c-0.04-0.24-0.01-0.48,0.07-0.74l0,0c2.15-6.73,46.05-17.91,62.72-23.9C176.36,506.08,175.97,501.05,175.97,501.05z"/>
	<g>
		<defs>
			<path id="SVGID_00000120524928741306653730000003138178443694136201_" d="M175.95,500.9l-10.24-20.25l0,0l-11.34-21.94
				c1.04,6.8-45.95,18.31-63.36,24.58c-7.38,2.66-7.02,7.81-7.02,7.81s6.34,12.36,11.91,23.2l9.82,19.3
				c-0.04-0.25-0.01-0.5,0.07-0.75l0,0c2.22-6.89,46.34-18.09,63.12-24.13C176.31,506.06,175.95,500.9,175.95,500.9z"/>
		</defs>
		<clipPath id="SVGID_00000176741467792043138740000000119829462645197500_">
			<use xlink:href="#SVGID_00000120524928741306653730000003138178443694136201_"  style="overflow:visible;"/>
		</clipPath>
		<g style="clip-path:url(#SVGID_00000176741467792043138740000000119829462645197500_);">
			<path class="st13" d="M164.15,472.89l-0.5,1.33c-1.49,3.97-4.39,5.25-6.71,6.29c-0.52,0.23-1,0.45-1.45,0.68
				c-1.8,0.95-7.75,3.22-11.1,4.44c-3.85,1.23-36.29,11.6-44.09,14.2c-10.08,3.36-21.1,11.99-21.82,14.47l-0.32,1.09l13.78,5.97
				l0.49-1.68c1.2-4.11,8.73-8.16,12.5-9.42c7.87-2.63,42.57-13.71,44.05-14.18l0.26-0.09c0.98-0.36,9.7-3.53,12.95-5.25
				c5.32-2.81,11.21-6.36,13.73-13.07l0.5-1.33L164.15,472.89z"/>
			<path class="st13" d="M162.99,524.71c-6.09-1.17-13.46-4.15-14.72-6.74c-3.16-6.52-16.21-34.49-17.69-37.66l-0.14-0.28
				c-0.44-0.84-4.37-8.28-6.44-11.04c-3.64-4.84-9.04-8.1-16.52-9.99l-1.39-0.35l-3.51,10.47l1.39,0.35
				c5.88,1.48,8.16,3.7,9.49,5.47c1.16,1.54,3.97,6.63,5.48,9.5c1.53,3.28,14.48,31.05,17.74,37.75
				c4.52,9.3,21.68,12.79,23.62,13.16l1.42,0.27l2.69-10.64L162.99,524.71z"/>
		</g>
	</g>
	<g>
		<g>
			<path class="st13" d="M98.61,491.86c0.26,0.54,0.48,1.08,0.66,1.63c1.59-0.89,3.31-1.66,5.13-2.3c1.83-0.64,3.68-1.12,5.55-1.46
				c-0.33-0.49-0.63-1.01-0.89-1.55c-0.26-0.54-0.48-1.08-0.66-1.63c-1.59,0.89-3.31,1.66-5.13,2.3c-1.83,0.64-3.68,1.12-5.55,1.46
				C98.05,490.8,98.35,491.32,98.61,491.86z"/>
			<path class="st13" d="M101.67,485.59c-0.63,0.22-1.28,0.41-1.92,0.56c1.04,1.35,1.96,2.81,2.72,4.35s1.32,3.12,1.72,4.71
				c0.58-0.28,1.19-0.53,1.83-0.76c0.63-0.22,1.28-0.41,1.92-0.56c-1.04-1.35-1.96-2.81-2.72-4.35c-0.76-1.55-1.32-3.12-1.72-4.71
				C102.91,485.11,102.3,485.37,101.67,485.59z"/>
		</g>
		<g>
			<path class="st13" d="M112.78,519.32c0.26,0.54,0.48,1.08,0.66,1.63c1.59-0.89,3.31-1.66,5.13-2.3c1.83-0.64,3.68-1.12,5.55-1.46
				c-0.33-0.49-0.63-1.01-0.89-1.55s-0.48-1.08-0.66-1.63c-1.59,0.89-3.31,1.66-5.13,2.3c-1.83,0.64-3.68,1.12-5.55,1.46
				C112.21,518.26,112.51,518.78,112.78,519.32z"/>
			<path class="st13" d="M115.83,513.05c-0.63,0.22-1.28,0.41-1.92,0.56c1.04,1.35,1.96,2.81,2.72,4.35
				c0.76,1.55,1.32,3.12,1.72,4.71c0.58-0.28,1.19-0.53,1.83-0.76c0.63-0.22,1.28-0.41,1.92-0.56c-1.04-1.35-1.96-2.81-2.72-4.35
				c-0.76-1.55-1.32-3.12-1.72-4.71C117.08,512.57,116.47,512.82,115.83,513.05z"/>
		</g>
		<g>
			<path class="st13" d="M139.96,477.31c0.26,0.54,0.48,1.08,0.66,1.63c1.59-0.89,3.31-1.66,5.13-2.3c1.83-0.64,3.68-1.12,5.55-1.46
				c-0.33-0.49-0.63-1.01-0.89-1.55s-0.48-1.08-0.66-1.63c-1.59,0.89-3.31,1.66-5.13,2.3c-1.83,0.64-3.68,1.12-5.55,1.46
				C139.39,476.25,139.69,476.77,139.96,477.31z"/>
			<path class="st13" d="M143.01,471.04c-0.63,0.22-1.28,0.41-1.92,0.56c1.04,1.35,1.96,2.81,2.72,4.35
				c0.76,1.55,1.32,3.12,1.72,4.71c0.58-0.28,1.19-0.53,1.83-0.76s1.28-0.41,1.92-0.56c-1.04-1.35-1.96-2.81-2.72-4.35
				c-0.76-1.55-1.32-3.12-1.72-4.71C144.26,470.56,143.65,470.81,143.01,471.04z"/>
		</g>
		<g>
			<path class="st13" d="M154.13,504.77c0.26,0.54,0.48,1.08,0.66,1.63c1.59-0.89,3.31-1.66,5.13-2.3c1.83-0.64,3.68-1.12,5.55-1.46
				c-0.33-0.49-0.63-1.01-0.89-1.55s-0.48-1.08-0.66-1.63c-1.59,0.89-3.31,1.66-5.13,2.3c-1.83,0.64-3.68,1.12-5.55,1.46
				C153.56,503.71,153.86,504.23,154.13,504.77z"/>
			<path class="st13" d="M157.18,498.5c-0.63,0.22-1.28,0.41-1.92,0.56c1.04,1.35,1.96,2.81,2.72,4.35
				c0.76,1.55,1.32,3.12,1.72,4.71c0.58-0.28,1.19-0.53,1.83-0.76c0.63-0.22,1.28-0.41,1.92-0.56c-1.04-1.35-1.96-2.81-2.72-4.35
				c-0.76-1.55-1.32-3.12-1.72-4.71C158.43,498.02,157.82,498.27,157.18,498.5z"/>
		</g>
	</g>
</g>
</svg>
